<svg xmlns="http://www.w3.org/2000/svg" xmlns:xlink="http://www.w3.org/1999/xlink" width="2000" zoomAndPan="magnify" viewBox="0 0 1500 1499.999933" height="2000" preserveAspectRatio="xMidYMid meet" version="1.0"><defs><g/><clipPath id="98e36ba8ef"><rect x="0" width="368" y="0" height="417"/></clipPath><clipPath id="c0585a2a9f"><rect x="0" width="267" y="0" height="544"/></clipPath></defs><rect x="-150" width="1800" fill="#ffffff" y="-149.999993" height="1799.99992" fill-opacity="1"/><rect x="-150" width="1800" fill="#ffffff" y="-149.999993" height="1799.99992" fill-opacity="1"/><g transform="matrix(1, 0, 0, 1, 669, 444)"><g clip-path="url(#98e36ba8ef)"><g fill="#000000" fill-opacity="1"><g transform="translate(22.744036, 301.735115)"><g><path d="M 339.078125 49.9375 C 340.304688 49.9375 341.539062 49.9375 342.78125 49.9375 L 342.78125 53.015625 C 337.019531 53.835938 330.59375 54.25 323.5 54.25 C 316.414062 54.25 307.679688 52.707031 297.296875 49.625 C 286.921875 46.539062 277.523438 40.785156 269.109375 32.359375 C 251.835938 15.097656 241.351562 -7.296875 237.65625 -34.828125 L 218.859375 -172 L 154.734375 -27.125 C 148.984375 -14.59375 145.492188 -4.113281 144.265625 4.3125 L 141.171875 4.3125 L 61.34375 -169.234375 L 47.78125 -16.03125 C 47.363281 -12.53125 48.441406 -9.445312 51.015625 -6.78125 C 53.585938 -4.113281 56.414062 -2.78125 59.5 -2.78125 L 64.421875 -2.78125 L 64.421875 0 L 4.625 0 L 4.625 -3.078125 L 9.5625 -3.078125 C 15.101562 -3.078125 19.976562 -4.769531 24.1875 -8.15625 C 28.40625 -11.550781 31.03125 -16.023438 32.0625 -21.578125 L 51.484375 -189.875 C 33.398438 -225.425781 11.71875 -243.203125 -13.5625 -243.203125 C -15.820312 -243.203125 -18.1875 -243.101562 -20.65625 -242.90625 L -20.65625 -245.984375 C -15.101562 -247.421875 -10.578125 -248.140625 -7.078125 -248.140625 C -3.585938 -248.140625 0.207031 -247.984375 4.3125 -247.671875 C 8.425781 -247.367188 13.253906 -246.394531 18.796875 -244.75 C 24.347656 -243.101562 29.585938 -240.6875 34.515625 -237.5 C 39.453125 -234.320312 43.769531 -231.035156 47.46875 -227.640625 C 51.164062 -224.253906 54.660156 -220.503906 57.953125 -216.390625 C 63.503906 -208.992188 67.921875 -201.90625 71.203125 -195.125 L 145.5 -34.21875 L 228.40625 -220.09375 L 231.1875 -220.09375 L 259.859375 -37.609375 C 264.171875 -8.835938 273.46875 12.941406 287.75 27.734375 C 302.03125 42.535156 319.140625 49.9375 339.078125 49.9375 Z M 339.078125 49.9375 "/></g></g></g></g></g><g transform="matrix(1, 0, 0, 1, 526, 380)"><g clip-path="url(#c0585a2a9f)"><g fill="#ffffff" fill-opacity="1"><g transform="translate(6.644726, 392.309804)"><g><path d="M 63.28125 -95.292969 C 51.984375 -80.519531 46.335938 -64.722656 46.335938 -47.894531 C 46.335938 -38.554688 48.207031 -30.425781 51.953125 -23.507812 C 55.707031 -16.566406 61.527344 -10.503906 69.414062 -5.3125 C 78.601562 0.878906 89.070312 3.972656 100.820312 3.972656 C 113.28125 3.972656 123.855469 1.652344 132.539062 -2.992188 C 140.507812 -7.125 146.613281 -12.480469 150.855469 -19.054688 C 155.273438 -25.902344 158 -34.421875 159.027344 -44.609375 L 159.070312 -45.007812 L 159.125 -45.402344 C 159.261719 -46.371094 159.332031 -47.335938 159.332031 -48.296875 C 159.332031 -55.304688 157.210938 -63.257812 152.96875 -72.160156 C 148.773438 -80.957031 141.699219 -89.25 131.75 -97.039062 L 59.242188 -154.238281 C 49.0625 -162.175781 41.339844 -171.453125 36.074219 -182.074219 C 30.773438 -192.765625 28.125 -204.523438 28.125 -217.339844 C 28.125 -242.007812 36.160156 -262.976562 52.230469 -280.246094 C 68.671875 -297.910156 90.4375 -306.742188 117.523438 -306.742188 C 129.617188 -306.742188 142.632812 -305.261719 156.574219 -302.292969 L 152.542969 -283.347656 L 152.542969 -302.71875 L 187.699219 -302.71875 L 189.132812 -214.472656 L 146.449219 -214.472656 L 146.054688 -233.441406 C 145.910156 -240.378906 143.640625 -245.652344 139.246094 -249.257812 C 133.828125 -253.707031 126.65625 -255.929688 117.726562 -255.929688 C 109.46875 -255.929688 102.664062 -253.292969 97.3125 -248.019531 C 92.039062 -242.824219 89.402344 -235.882812 89.402344 -227.203125 C 89.402344 -223.222656 90.191406 -219.667969 91.765625 -216.535156 C 93.441406 -213.203125 96.117188 -210.070312 99.800781 -207.144531 L 174.199219 -148.425781 C 208.628906 -121.195312 225.84375 -87.953125 225.84375 -48.699219 C 225.84375 -18.28125 213.921875 7.707031 190.082031 29.261719 C 169.492188 47.890625 142.625 57.203125 109.476562 57.203125 C 89.363281 57.203125 71.277344 53.347656 55.210938 45.636719 C 39.804688 38.425781 27.347656 28.507812 17.835938 15.882812 C 8.402344 3.359375 2.136719 -11.527344 -0.953125 -28.78125 C -1.960938 -34.152344 -2.464844 -40.726562 -2.464844 -48.5 C -2.464844 -57.144531 -0.261719 -68.152344 4.140625 -81.527344 C 8.78125 -95.613281 17.433594 -109.464844 30.089844 -123.070312 L 42.167969 -136.054688 L 74.953125 -110.554688 Z M 32.507812 -118.828125 L 47.894531 -107.0625 L 36.003906 -91.769531 L 32.382812 -94.589844 L 44.273438 -109.878906 L 58.457031 -96.683594 C 49.648438 -87.21875 43.808594 -78.125 40.9375 -69.40625 C 37.828125 -59.96875 36.273438 -53 36.273438 -48.5 C 36.273438 -43.125 36.574219 -38.832031 37.179688 -35.617188 C 39.183594 -24.425781 43.050781 -15.03125 48.777344 -7.429688 C 54.425781 0.0703125 62.15625 6.117188 71.972656 10.710938 C 82.742188 15.878906 95.242188 18.464844 109.476562 18.464844 C 132.675781 18.464844 150.882812 12.484375 164.101562 0.523438 C 179.4375 -13.339844 187.105469 -29.75 187.105469 -48.699219 C 187.105469 -75.453125 174.804688 -98.558594 150.199219 -118.015625 L 75.683594 -176.824219 C 67.558594 -183.289062 61.382812 -190.722656 57.15625 -199.128906 C 52.828125 -207.738281 50.664062 -217.09375 50.664062 -227.203125 C 50.664062 -246.695312 57.148438 -262.832031 70.121094 -275.613281 C 83.015625 -288.316406 98.882812 -294.667969 117.726562 -294.667969 C 135.898438 -294.667969 151.265625 -289.511719 163.824219 -279.203125 C 177.40625 -268.050781 184.394531 -253.066406 184.785156 -234.246094 L 165.421875 -233.84375 L 165.421875 -253.210938 L 169.445312 -253.210938 L 169.445312 -233.84375 L 150.078125 -233.527344 L 149.273438 -283.035156 L 168.640625 -283.347656 L 168.640625 -263.980469 L 150.503906 -263.980469 L 148.511719 -264.402344 C 137.226562 -266.804688 126.898438 -268.003906 117.523438 -268.003906 C 101.683594 -268.003906 89.371094 -263.285156 80.589844 -253.851562 C 71.4375 -244.019531 66.863281 -231.847656 66.863281 -217.339844 C 66.863281 -210.574219 68.167969 -204.550781 70.785156 -199.28125 C 73.433594 -193.9375 77.585938 -189.058594 83.238281 -184.652344 L 155.625 -127.546875 C 170.359375 -116.015625 181.128906 -103.109375 187.9375 -88.832031 C 194.695312 -74.65625 198.074219 -61.148438 198.074219 -48.296875 C 198.074219 -45.503906 197.875 -42.710938 197.476562 -39.925781 L 178.300781 -42.664062 L 197.570312 -40.714844 C 195.917969 -24.34375 191.195312 -10.121094 183.40625 1.949219 C 175.441406 14.292969 164.578125 24.03125 150.808594 31.167969 C 136.417969 38.863281 119.753906 42.714844 100.820312 42.714844 C 81.179688 42.714844 63.609375 37.492188 48.113281 27.046875 C 34.800781 18.285156 24.722656 7.578125 17.878906 -5.070312 C 11.023438 -17.738281 7.597656 -32.015625 7.597656 -47.894531 C 7.597656 -73.464844 15.902344 -97.109375 32.507812 -118.828125 Z M 32.507812 -118.828125 "/></g></g></g><g fill="#000000" fill-opacity="1"><g transform="translate(6.644726, 392.309804)"><g><path d="M 47.890625 -107.0625 C 33.941406 -88.8125 26.96875 -69.085938 26.96875 -47.890625 C 26.96875 -22.671875 37.566406 -3.085938 58.765625 10.859375 C 71.109375 19.179688 85.128906 23.34375 100.828125 23.34375 C 116.523438 23.34375 130.140625 20.257812 141.671875 14.09375 C 163.410156 2.820312 175.617188 -16.09375 178.296875 -42.65625 C 178.566406 -44.539062 178.703125 -46.421875 178.703125 -48.296875 C 178.703125 -58.222656 175.953125 -68.953125 170.453125 -80.484375 C 164.953125 -92.023438 156.03125 -102.628906 143.6875 -112.296875 L 71.234375 -169.453125 C 55.410156 -181.785156 47.5 -197.742188 47.5 -217.328125 C 47.5 -236.921875 53.800781 -253.492188 66.40625 -267.046875 C 79.019531 -280.597656 96.0625 -287.375 117.53125 -287.375 C 128.257812 -287.375 139.929688 -286.03125 152.546875 -283.34375 L 168.640625 -283.34375 L 169.453125 -233.84375 L 165.421875 -233.84375 C 165.148438 -246.71875 160.519531 -256.84375 151.53125 -264.21875 C 142.539062 -271.601562 131.269531 -275.296875 117.71875 -275.296875 C 104.175781 -275.296875 92.84375 -270.800781 83.71875 -261.8125 C 74.59375 -252.820312 70.03125 -241.285156 70.03125 -227.203125 C 70.03125 -213.117188 75.929688 -201.378906 87.734375 -191.984375 L 162.203125 -133.21875 C 191.710938 -109.875 206.46875 -81.703125 206.46875 -48.703125 C 206.46875 -24.015625 196.675781 -2.816406 177.09375 14.890625 C 160.1875 30.179688 137.644531 37.828125 109.46875 37.828125 C 92.300781 37.828125 77.007812 34.609375 63.59375 28.171875 C 38.375 16.367188 23.210938 -3.753906 18.109375 -32.203125 C 17.304688 -36.492188 16.90625 -41.925781 16.90625 -48.5 C 16.90625 -55.070312 18.78125 -64.0625 22.53125 -75.46875 C 26.289062 -86.875 33.535156 -98.34375 44.265625 -109.875 Z M 47.890625 -107.0625 "/></g></g></g></g></g></svg>